<svg width="300" height="330" viewBox="0 0 300 330" fill="none" xmlns="http://www.w3.org/2000/svg">
<rect width="300" height="300" rx="20" fill="#FFD8D8"/>
<path d="M159.1 255H91V54.3H164.8C170.6 54.3 176 55.4 181 57.6C186.2 59.8 190.6 62.8 194.2 66.6C198 70.4 201 74.9 203.2 80.1C205.4 85.1 206.5 90.4 206.5 96C206.5 106.8 203 116 196 123.6C206.2 130 214.4 138.5 220.6 149.1C226.8 159.7 229.9 171.4 229.9 184.2C229.9 194 228 203.2 224.2 211.8C220.6 220.4 215.6 227.9 209.2 234.3C202.8 240.7 195.3 245.8 186.7 249.6C178.1 253.2 168.9 255 159.1 255ZM115.9 230.1L159.1 230.4C165.5 230.4 171.5 229.2 177.1 226.8C182.7 224.2 187.6 220.8 191.8 216.6C196 212.4 199.3 207.6 201.7 202.2C204.1 196.6 205.3 190.6 205.3 184.2C205.3 177.8 204.1 171.8 201.7 166.2C199.3 160.6 196 155.7 191.8 151.5C187.6 147.3 182.7 144 177.1 141.6C171.5 139.2 165.5 138 159.1 138H115.9V230.1ZM115.9 79.2V113.1H164.8C169.4 113.1 173.4 111.5 176.8 108.3C180.2 104.9 181.9 100.8 181.9 96C181.9 91.4 180.2 87.5 176.8 84.3C173.4 80.9 169.4 79.2 164.8 79.2H115.9Z" fill="#302939"/>
</svg>
