<svg width="190" height="31" viewBox="0 0 190 31" fill="none" xmlns="http://www.w3.org/2000/svg">
<path d="M0.519531 1.44531H7.80469C10.7734 1.44531 12.9349 2.02474 14.2891 3.18359C15.6432 4.32943 16.3203 6.15885 16.3203 8.67188C16.3203 10.3255 15.9622 11.7122 15.2461 12.832C14.5299 13.9388 13.5534 14.6094 12.3164 14.8438V15.0391C13.931 15.4427 15.0964 16.1979 15.8125 17.3047C16.5286 18.4115 16.8867 19.8828 16.8867 21.7188C16.8867 24.3099 16.1901 26.3411 14.7969 27.8125C13.4167 29.2708 11.5221 30 9.11328 30H0.519531V1.44531ZM5.51953 12.9297H7.96094C9.08073 12.9297 9.86849 12.6302 10.3242 12.0312C10.7799 11.4323 11.0078 10.5404 11.0078 9.35547C11.0078 8.17057 10.7474 7.32422 10.2266 6.81641C9.70573 6.29557 8.88542 6.03516 7.76562 6.03516H5.51953V12.9297ZM5.51953 17.3633V25.3516H8.19531C9.30208 25.3516 10.1224 25.013 10.6562 24.3359C11.2031 23.6589 11.4766 22.6107 11.4766 21.1914C11.4766 18.6393 10.3568 17.3633 8.11719 17.3633H5.51953ZM40.4414 15.6836C40.4414 20.4102 39.556 24.043 37.7852 26.582C36.0143 29.1211 33.4818 30.3906 30.1875 30.3906C26.8802 30.3906 24.3411 29.1276 22.5703 26.6016C20.7995 24.0625 19.9141 20.4102 19.9141 15.6445C19.9141 10.918 20.7995 7.29818 22.5703 4.78516C24.3411 2.25911 26.8932 0.996094 30.2266 0.996094C33.5208 0.996094 36.0469 2.26562 37.8047 4.80469C39.5625 7.33073 40.4414 10.957 40.4414 15.6836ZM25.3438 15.6836C25.3438 18.9388 25.7539 21.4193 26.5742 23.125C27.3945 24.8307 28.599 25.6836 30.1875 25.6836C33.3906 25.6836 34.9922 22.3503 34.9922 15.6836C34.9922 9.01693 33.4036 5.68359 30.2266 5.68359C28.612 5.68359 27.3945 6.53646 26.5742 8.24219C25.7539 9.9349 25.3438 12.4154 25.3438 15.6836ZM64.2695 15.6836C64.2695 20.4102 63.3841 24.043 61.6133 26.582C59.8424 29.1211 57.3099 30.3906 54.0156 30.3906C50.7083 30.3906 48.1693 29.1276 46.3984 26.6016C44.6276 24.0625 43.7422 20.4102 43.7422 15.6445C43.7422 10.918 44.6276 7.29818 46.3984 4.78516C48.1693 2.25911 50.7214 0.996094 54.0547 0.996094C57.349 0.996094 59.875 2.26562 61.6328 4.80469C63.3906 7.33073 64.2695 10.957 64.2695 15.6836ZM49.1719 15.6836C49.1719 18.9388 49.582 21.4193 50.4023 23.125C51.2227 24.8307 52.4271 25.6836 54.0156 25.6836C57.2188 25.6836 58.8203 22.3503 58.8203 15.6836C58.8203 9.01693 57.2318 5.68359 54.0547 5.68359C52.4401 5.68359 51.2227 6.53646 50.4023 8.24219C49.582 9.9349 49.1719 12.4154 49.1719 15.6836ZM86.2422 30H80.5781L75.8906 17.793L73.7617 19.9219V30H68.4492V1.44531H73.7617V15.6055L75.6172 11.3281L80.4805 1.44531H86.1641L79.5625 13.8086L86.2422 30ZM107.785 15.6836C107.785 20.4102 106.9 24.043 105.129 26.582C103.358 29.1211 100.826 30.3906 97.5312 30.3906C94.224 30.3906 91.6849 29.1276 89.9141 26.6016C88.1432 24.0625 87.2578 20.4102 87.2578 15.6445C87.2578 10.918 88.1432 7.29818 89.9141 4.78516C91.6849 2.25911 94.237 0.996094 97.5703 0.996094C100.865 0.996094 103.391 2.26562 105.148 4.80469C106.906 7.33073 107.785 10.957 107.785 15.6836ZM92.6875 15.6836C92.6875 18.9388 93.0977 21.4193 93.918 23.125C94.7383 24.8307 95.9427 25.6836 97.5312 25.6836C100.734 25.6836 102.336 22.3503 102.336 15.6836C102.336 9.01693 100.747 5.68359 97.5703 5.68359C95.9557 5.68359 94.7383 6.53646 93.918 8.24219C93.0977 9.9349 92.6875 12.4154 92.6875 15.6836ZM111.965 30V1.44531H117.277V25.3516H124.641V30H111.965ZM147.707 15.6836C147.707 20.4102 146.822 24.043 145.051 26.582C143.28 29.1211 140.747 30.3906 137.453 30.3906C134.146 30.3906 131.607 29.1276 129.836 26.6016C128.065 24.0625 127.18 20.4102 127.18 15.6445C127.18 10.918 128.065 7.29818 129.836 4.78516C131.607 2.25911 134.159 0.996094 137.492 0.996094C140.786 0.996094 143.312 2.26562 145.07 4.80469C146.828 7.33073 147.707 10.957 147.707 15.6836ZM132.609 15.6836C132.609 18.9388 133.02 21.4193 133.84 23.125C134.66 24.8307 135.865 25.6836 137.453 25.6836C140.656 25.6836 142.258 22.3503 142.258 15.6836C142.258 9.01693 140.669 5.68359 137.492 5.68359C135.878 5.68359 134.66 6.53646 133.84 8.24219C133.02 9.9349 132.609 12.4154 132.609 15.6836ZM160.52 14.1602H169.25V28.8086C166.776 29.8633 164.146 30.3906 161.359 30.3906C158.039 30.3906 155.48 29.1276 153.684 26.6016C151.9 24.0755 151.008 20.4362 151.008 15.6836C151.008 11.1003 152.03 7.51302 154.074 4.92188C156.132 2.33073 159.003 1.03516 162.688 1.03516C164.966 1.03516 167.141 1.62109 169.211 2.79297L167.531 7.12891C165.917 6.19141 164.406 5.72266 163 5.72266C160.982 5.72266 159.38 6.6276 158.195 8.4375C157.023 10.2344 156.438 12.6888 156.438 15.8008C156.438 19.0039 156.861 21.4583 157.707 23.1641C158.566 24.8698 159.81 25.7227 161.438 25.7227C162.297 25.7227 163.169 25.612 164.055 25.3906V18.8477H160.52V14.1602ZM180.48 12.7148L184.289 1.44531H189.855L183.078 18.5547V30H177.844V18.7695L171.086 1.44531H176.691L180.48 12.7148Z" fill="#302939"/>
</svg>
