<svg width="139" height="201" viewBox="0 0 139 201" fill="none" xmlns="http://www.w3.org/2000/svg">
<path d="M68.1 201H0V0.299991H73.8C79.6 0.299991 85 1.39999 90 3.59998C95.2 5.79999 99.6 8.79999 103.2 12.6C107 16.4 110 20.9 112.2 26.1C114.4 31.1 115.5 36.4 115.5 42C115.5 52.8 112 62 105 69.6C115.2 76 123.4 84.5 129.6 95.1C135.8 105.7 138.9 117.4 138.9 130.2C138.9 140 137 149.2 133.2 157.8C129.6 166.4 124.6 173.9 118.2 180.3C111.8 186.7 104.3 191.8 95.7 195.6C87.1 199.2 77.9 201 68.1 201ZM24.9 176.1L68.1 176.4C74.5 176.4 80.5 175.2 86.1 172.8C91.7 170.2 96.6 166.8 100.8 162.6C105 158.4 108.3 153.6 110.7 148.2C113.1 142.6 114.3 136.6 114.3 130.2C114.3 123.8 113.1 117.8 110.7 112.2C108.3 106.6 105 101.7 100.8 97.5C96.6 93.3 91.7 90 86.1 87.6C80.5 85.2 74.5 84 68.1 84H24.9V176.1ZM24.9 25.2V59.1H73.8C78.4 59.1 82.4 57.5 85.8 54.3C89.2 50.9 90.9 46.8 90.9 42C90.9 37.4 89.2 33.5 85.8 30.3C82.4 26.9 78.4 25.2 73.8 25.2H24.9Z" fill="#302939"/>
</svg>
