<svg width="210" height="300" viewBox="0 0 210 300" fill="none" xmlns="http://www.w3.org/2000/svg">
<path d="M98.1 225H30V24.3H103.8C109.6 24.3 115 25.4 120 27.6C125.2 29.8 129.6 32.8 133.2 36.6C137 40.4 140 44.9 142.2 50.1C144.4 55.1 145.5 60.4 145.5 66C145.5 76.8 142 86 135 93.6C145.2 100 153.4 108.5 159.6 119.1C165.8 129.7 168.9 141.4 168.9 154.2C168.9 164 167 173.2 163.2 181.8C159.6 190.4 154.6 197.9 148.2 204.3C141.8 210.7 134.3 215.8 125.7 219.6C117.1 223.2 107.9 225 98.1 225ZM54.9 200.1L98.1 200.4C104.5 200.4 110.5 199.2 116.1 196.8C121.7 194.2 126.6 190.8 130.8 186.6C135 182.4 138.3 177.6 140.7 172.2C143.1 166.6 144.3 160.6 144.3 154.2C144.3 147.8 143.1 141.8 140.7 136.2C138.3 130.6 135 125.7 130.8 121.5C126.6 117.3 121.7 114 116.1 111.6C110.5 109.2 104.5 108 98.1 108H54.9V200.1ZM54.9 49.2V83.1H103.8C108.4 83.1 112.4 81.5 115.8 78.3C119.2 74.9 120.9 70.8 120.9 66C120.9 61.4 119.2 57.5 115.8 54.3C112.4 50.9 108.4 49.2 103.8 49.2H54.9Z" fill="#302939"/>
<path d="M2.51953 239.445H9.80469C12.7734 239.445 14.9349 240.025 16.2891 241.184C17.6432 242.329 18.3203 244.159 18.3203 246.672C18.3203 248.326 17.9622 249.712 17.2461 250.832C16.5299 251.939 15.5534 252.609 14.3164 252.844V253.039C15.931 253.443 17.0964 254.198 17.8125 255.305C18.5286 256.411 18.8867 257.883 18.8867 259.719C18.8867 262.31 18.1901 264.341 16.7969 265.812C15.4167 267.271 13.5221 268 11.1133 268H2.51953V239.445ZM7.51953 250.93H9.96094C11.0807 250.93 11.8685 250.63 12.3242 250.031C12.7799 249.432 13.0078 248.54 13.0078 247.355C13.0078 246.171 12.7474 245.324 12.2266 244.816C11.7057 244.296 10.8854 244.035 9.76562 244.035H7.51953V250.93ZM7.51953 255.363V263.352H10.1953C11.3021 263.352 12.1224 263.013 12.6562 262.336C13.2031 261.659 13.4766 260.611 13.4766 259.191C13.4766 256.639 12.3568 255.363 10.1172 255.363H7.51953ZM42.4414 253.684C42.4414 258.41 41.556 262.043 39.7852 264.582C38.0143 267.121 35.4818 268.391 32.1875 268.391C28.8802 268.391 26.3411 267.128 24.5703 264.602C22.7995 262.062 21.9141 258.41 21.9141 253.645C21.9141 248.918 22.7995 245.298 24.5703 242.785C26.3411 240.259 28.8932 238.996 32.2266 238.996C35.5208 238.996 38.0469 240.266 39.8047 242.805C41.5625 245.331 42.4414 248.957 42.4414 253.684ZM27.3438 253.684C27.3438 256.939 27.7539 259.419 28.5742 261.125C29.3945 262.831 30.599 263.684 32.1875 263.684C35.3906 263.684 36.9922 260.35 36.9922 253.684C36.9922 247.017 35.4036 243.684 32.2266 243.684C30.612 243.684 29.3945 244.536 28.5742 246.242C27.7539 247.935 27.3438 250.415 27.3438 253.684ZM66.2695 253.684C66.2695 258.41 65.3841 262.043 63.6133 264.582C61.8424 267.121 59.3099 268.391 56.0156 268.391C52.7083 268.391 50.1693 267.128 48.3984 264.602C46.6276 262.062 45.7422 258.41 45.7422 253.645C45.7422 248.918 46.6276 245.298 48.3984 242.785C50.1693 240.259 52.7214 238.996 56.0547 238.996C59.349 238.996 61.875 240.266 63.6328 242.805C65.3906 245.331 66.2695 248.957 66.2695 253.684ZM51.1719 253.684C51.1719 256.939 51.582 259.419 52.4023 261.125C53.2227 262.831 54.4271 263.684 56.0156 263.684C59.2188 263.684 60.8203 260.35 60.8203 253.684C60.8203 247.017 59.2318 243.684 56.0547 243.684C54.4401 243.684 53.2227 244.536 52.4023 246.242C51.582 247.935 51.1719 250.415 51.1719 253.684ZM88.2422 268H82.5781L77.8906 255.793L75.7617 257.922V268H70.4492V239.445H75.7617V253.605L77.6172 249.328L82.4805 239.445H88.1641L81.5625 251.809L88.2422 268ZM109.785 253.684C109.785 258.41 108.9 262.043 107.129 264.582C105.358 267.121 102.826 268.391 99.5312 268.391C96.224 268.391 93.6849 267.128 91.9141 264.602C90.1432 262.062 89.2578 258.41 89.2578 253.645C89.2578 248.918 90.1432 245.298 91.9141 242.785C93.6849 240.259 96.237 238.996 99.5703 238.996C102.865 238.996 105.391 240.266 107.148 242.805C108.906 245.331 109.785 248.957 109.785 253.684ZM94.6875 253.684C94.6875 256.939 95.0977 259.419 95.918 261.125C96.7383 262.831 97.9427 263.684 99.5312 263.684C102.734 263.684 104.336 260.35 104.336 253.684C104.336 247.017 102.747 243.684 99.5703 243.684C97.9557 243.684 96.7383 244.536 95.918 246.242C95.0977 247.935 94.6875 250.415 94.6875 253.684ZM113.965 268V239.445H119.277V263.352H126.641V268H113.965ZM149.707 253.684C149.707 258.41 148.822 262.043 147.051 264.582C145.28 267.121 142.747 268.391 139.453 268.391C136.146 268.391 133.607 267.128 131.836 264.602C130.065 262.062 129.18 258.41 129.18 253.645C129.18 248.918 130.065 245.298 131.836 242.785C133.607 240.259 136.159 238.996 139.492 238.996C142.786 238.996 145.312 240.266 147.07 242.805C148.828 245.331 149.707 248.957 149.707 253.684ZM134.609 253.684C134.609 256.939 135.02 259.419 135.84 261.125C136.66 262.831 137.865 263.684 139.453 263.684C142.656 263.684 144.258 260.35 144.258 253.684C144.258 247.017 142.669 243.684 139.492 243.684C137.878 243.684 136.66 244.536 135.84 246.242C135.02 247.935 134.609 250.415 134.609 253.684ZM162.52 252.16H171.25V266.809C168.776 267.863 166.146 268.391 163.359 268.391C160.039 268.391 157.48 267.128 155.684 264.602C153.9 262.076 153.008 258.436 153.008 253.684C153.008 249.1 154.03 245.513 156.074 242.922C158.132 240.331 161.003 239.035 164.688 239.035C166.966 239.035 169.141 239.621 171.211 240.793L169.531 245.129C167.917 244.191 166.406 243.723 165 243.723C162.982 243.723 161.38 244.628 160.195 246.438C159.023 248.234 158.438 250.689 158.438 253.801C158.438 257.004 158.861 259.458 159.707 261.164C160.566 262.87 161.81 263.723 163.438 263.723C164.297 263.723 165.169 263.612 166.055 263.391V256.848H162.52V252.16ZM182.48 250.715L186.289 239.445H191.855L185.078 256.555V268H179.844V256.77L173.086 239.445H178.691L182.48 250.715Z" fill="#302939"/>
</svg>
